<?xml version="1.0" standalone="no"?>
<!DOCTYPE svg PUBLIC "-//W3C//DTD SVG 20010904//EN"
 "http://www.w3.org/TR/2001/REC-SVG-20010904/DTD/svg10.dtd">
<svg version="1.0" xmlns="http://www.w3.org/2000/svg"
 width="2952.000000pt" height="1500.000000pt" viewBox="0 0 2952.000000 1500.000000"
 preserveAspectRatio="xMidYMid meet">

<g transform="translate(0.000000,1500.000000) scale(0.100000,-0.100000)"
fill="#000000" stroke="none">
<path d="M12350 14980 l-375 -5 -3 -2393 -2 -2393 1147 4 c1119 3 1152 4 1303
25 803 114 1388 369 1805 787 336 336 527 742 602 1275 21 154 24 587 4 755
-64 555 -237 945 -559 1262 -344 339 -807 541 -1507 660 l-160 27 -940 1
c-517 0 -1109 -2 -1315 -5z"/>
<path d="M2385 9454 c-1304 -3028 -2372 -5510 -2373 -5515 -2 -6 315 -8 838
-7 l842 3 1791 4303 c985 2366 1794 4302 1797 4302 3 0 876 -1934 1941 -4298
l1936 -4297 811 -3 c647 -2 812 0 811 10 0 7 -1120 2486 -2487 5508 l-2487
5495 -525 3 -525 2 -2370 -5506z"/>
<path d="M23273 14798 c-39 -90 -1106 -2569 -2372 -5510 -1265 -2940 -2301
-5349 -2301 -5352 0 -3 378 -6 839 -6 l839 0 15 38 c57 141 3559 8547 3566
8560 8 13 17 0 46 -63 19 -44 892 -1979 1938 -4300 l1902 -4220 813 -3 c772
-2 813 -1 808 15 -3 10 -1124 2489 -2490 5508 l-2484 5490 -525 3 -525 2 -69
-162z"/>
<path d="M13557 8893 l-1588 -3 6 -1248 c3 -686 8 -1811 11 -2500 l6 -1253
1937 4 c1780 2 1947 4 2071 20 382 50 701 142 979 281 716 360 1171 1075 1277
2006 20 179 15 548 -10 710 -132 845 -619 1426 -1462 1743 -426 160 -975 251
-1469 244 -93 -1 -885 -3 -1758 -4z"/>
<path d="M1155 2724 c-251 -38 -449 -108 -607 -215 -351 -239 -565 -767 -520
-1287 52 -598 366 -1003 897 -1157 381 -110 768 -76 1143 101 106 50 272 151
355 216 l37 30 0 494 0 494 -303 0 c-167 0 -419 -3 -561 -7 l-257 -6 3 -151 3
-151 388 -3 387 -2 0 -245 0 -244 -57 -41 c-76 -55 -256 -141 -363 -175 -295
-92 -622 -62 -876 80 -231 129 -373 358 -420 675 -22 152 -15 434 14 560 74
316 220 518 464 641 243 122 608 130 847 19 101 -48 185 -114 236 -184 49 -69
105 -183 126 -256 7 -25 14 -46 15 -48 2 -4 306 79 313 85 9 7 -41 159 -78
239 -129 274 -336 432 -671 511 -88 21 -135 25 -295 28 -104 2 -203 1 -220 -1z"/>
<path d="M14740 2715 c-130 -22 -232 -54 -345 -110 -459 -226 -706 -705 -682
-1324 6 -168 24 -271 72 -417 65 -198 156 -354 284 -488 176 -183 375 -292
634 -347 145 -31 389 -31 534 0 331 70 601 247 765 501 73 112 99 165 142 289
69 197 80 276 80 546 0 260 -11 342 -70 521 -151 455 -496 754 -957 829 -111
18 -351 18 -457 0z m367 -296 c170 -23 330 -99 455 -217 191 -181 289 -424
305 -762 28 -596 -236 -1016 -702 -1116 -107 -23 -301 -21 -410 5 -348 82
-602 374 -666 766 -16 99 -16 402 0 510 18 116 48 236 82 316 143 348 530 554
936 498z"/>
<path d="M7077 2684 c-4 -4 -7 -598 -7 -1321 l0 -1313 175 0 175 0 0 585 0
585 233 0 c296 0 378 -9 464 -52 156 -76 258 -206 657 -835 l180 -283 218 0
c120 0 218 2 218 6 0 14 -483 760 -547 844 -98 130 -212 239 -310 299 l-83 49
66 11 c279 49 494 191 593 391 57 116 74 206 68 350 -13 300 -179 542 -430
625 -166 55 -213 58 -967 62 -382 3 -698 1 -703 -3z m1366 -309 c158 -28 270
-104 331 -226 100 -200 18 -456 -178 -552 -132 -65 -256 -77 -783 -77 l-393 0
0 435 0 435 473 0 c357 -1 491 -4 550 -15z"/>
<path d="M20783 1768 c4 -1005 2 -979 63 -1178 96 -315 321 -499 694 -566 130
-24 420 -24 545 -1 177 32 315 91 431 182 133 106 218 230 268 395 60 198 59
173 63 1173 l4 917 -175 0 -175 0 -4 -887 c-3 -752 -6 -901 -20 -970 -27 -142
-69 -250 -128 -325 -71 -89 -229 -158 -409 -179 -398 -45 -682 97 -765 383
-37 128 -38 157 -44 1068 l-6 905 -173 3 -173 2 4 -922z"/>
<path d="M27520 1370 l0 -1320 175 0 175 0 0 535 0 535 414 0 c479 0 587 9
755 66 135 45 203 87 289 179 76 82 137 188 171 299 18 59 21 94 21 251 0 157
-3 192 -21 251 -69 226 -215 382 -426 455 -168 58 -320 69 -1015 69 l-538 0 0
-1320z m1279 990 c226 -30 371 -204 371 -447 0 -252 -121 -402 -370 -458 -62
-14 -151 -18 -502 -22 l-428 -5 0 471 0 471 428 0 c235 0 461 -5 501 -10z"/>
</g>
</svg>
